<svg xmlns="http://www.w3.org/2000/svg" xmlns:xlink="http://www.w3.org/1999/xlink" width="500" zoomAndPan="magnify" viewBox="0 0 375 374.999991" height="500" preserveAspectRatio="xMidYMid meet" version="1.0"><defs><g/><clipPath id="6ca11b1fa5"><path d="M 10.28125 122.164062 L 125 122.164062 L 125 252.664062 L 10.28125 252.664062 Z M 10.28125 122.164062 " clip-rule="nonzero"/></clipPath></defs><g clip-path="url(#6ca11b1fa5)"><path fill="#ef382d" d="M 46.449219 163.304688 L 38.75 172.160156 L 30.011719 173.003906 L 10.292969 152.371094 L 13.945312 142.996094 L 16.972656 153.089844 L 33.734375 163.480469 L 39.84375 152.171875 L 36.394531 142.671875 C 34.257812 143.960938 32.097656 144.558594 30.855469 144.257812 C 27.976562 143.566406 23.429688 137.289062 24.894531 131.238281 C 26.359375 125.1875 31.402344 121.21875 36.144531 122.359375 C 40.886719 123.5 43.570312 129.328125 42.105469 135.382812 C 41.980469 135.878906 41.832031 136.375 41.632812 136.820312 L 47.070312 138.851562 L 57.476562 132.183594 L 71.851562 131.5625 L 81.859375 128.957031 L 99.042969 145.300781 L 106.742188 145.648438 L 98.050781 149.988281 L 79.847656 137.859375 L 65.570312 144.136719 L 69.566406 151.003906 L 65.96875 151.898438 L 83.152344 151.898438 L 70.984375 153.585938 L 73.316406 157.675781 L 67.65625 158.617188 L 94.175781 158.617188 L 75.355469 161.246094 L 77.167969 164.421875 L 71.902344 165.636719 L 108.976562 165.636719 L 80.144531 169.65625 L 82.753906 174.21875 L 88.886719 178.582031 L 88.984375 190.957031 L 94.722656 212.707031 L 107.335938 221.140625 L 118.164062 235.078125 L 124.96875 234.410156 L 114.191406 252.664062 L 112.726562 238.203125 L 97.402344 225.507812 L 87.398438 222.703125 L 71.976562 196.289062 L 49.679688 196.488281 L 59.0625 202.316406 L 70.1875 212.1875 L 75.949219 209.484375 L 71.679688 231.753906 L 67.160156 216.652344 L 35.398438 201.152344 L 34.777344 190.539062 L 53.425781 180.144531 L 68.523438 178.582031 L 57.996094 170.152344 Z M 46.449219 163.304688 " fill-opacity="1" fill-rule="nonzero"/></g><g fill="#ef382d" fill-opacity="1"><g transform="translate(121.838349, 180.427684)"><g><path d="M 15.03125 -10.171875 L 19.90625 -10.171875 L 19.90625 -2.09375 C 18.789062 -1.289062 17.503906 -0.675781 16.046875 -0.25 C 14.597656 0.175781 13.148438 0.390625 11.703125 0.390625 C 9.660156 0.390625 7.820312 -0.0390625 6.1875 -0.90625 C 4.550781 -1.769531 3.269531 -2.972656 2.34375 -4.515625 C 1.414062 -6.054688 0.953125 -7.800781 0.953125 -9.75 C 0.953125 -11.707031 1.414062 -13.457031 2.34375 -15 C 3.269531 -16.539062 4.5625 -17.742188 6.21875 -18.609375 C 7.875 -19.472656 9.738281 -19.90625 11.8125 -19.90625 C 13.632812 -19.90625 15.269531 -19.597656 16.71875 -18.984375 C 18.175781 -18.367188 19.382812 -17.484375 20.34375 -16.328125 L 16.84375 -13.15625 C 15.519531 -14.601562 13.9375 -15.328125 12.09375 -15.328125 C 10.425781 -15.328125 9.078125 -14.820312 8.046875 -13.8125 C 7.023438 -12.800781 6.515625 -11.445312 6.515625 -9.75 C 6.515625 -8.675781 6.75 -7.71875 7.21875 -6.875 C 7.6875 -6.03125 8.335938 -5.367188 9.171875 -4.890625 C 10.003906 -4.421875 10.960938 -4.1875 12.046875 -4.1875 C 13.097656 -4.1875 14.09375 -4.398438 15.03125 -4.828125 Z M 15.03125 -10.171875 "/></g></g></g><g fill="#ef382d" fill-opacity="1"><g transform="translate(143.298644, 180.427684)"><g><path d="M 1.953125 -19.515625 L 11.171875 -19.515625 C 13.316406 -19.515625 15.210938 -19.113281 16.859375 -18.3125 C 18.515625 -17.507812 19.796875 -16.375 20.703125 -14.90625 C 21.617188 -13.445312 22.078125 -11.726562 22.078125 -9.75 C 22.078125 -7.78125 21.617188 -6.0625 20.703125 -4.59375 C 19.796875 -3.125 18.515625 -1.988281 16.859375 -1.1875 C 15.210938 -0.394531 13.316406 0 11.171875 0 L 1.953125 0 Z M 10.953125 -4.40625 C 12.628906 -4.40625 13.972656 -4.878906 14.984375 -5.828125 C 15.992188 -6.773438 16.5 -8.082031 16.5 -9.75 C 16.5 -11.425781 15.992188 -12.738281 14.984375 -13.6875 C 13.972656 -14.632812 12.628906 -15.109375 10.953125 -15.109375 L 7.46875 -15.109375 L 7.46875 -4.40625 Z M 10.953125 -4.40625 "/></g></g></g><g fill="#ef382d" fill-opacity="1"><g transform="translate(166.319688, 180.427684)"><g><path d="M 10.875 -19.515625 C 12.632812 -19.515625 14.164062 -19.21875 15.46875 -18.625 C 16.769531 -18.039062 17.773438 -17.207031 18.484375 -16.125 C 19.191406 -15.039062 19.546875 -13.765625 19.546875 -12.296875 C 19.546875 -10.828125 19.191406 -9.550781 18.484375 -8.46875 C 17.773438 -7.394531 16.769531 -6.5625 15.46875 -5.96875 C 14.164062 -5.382812 12.632812 -5.09375 10.875 -5.09375 L 7.46875 -5.09375 L 7.46875 0 L 1.953125 0 L 1.953125 -19.515625 Z M 10.53125 -9.453125 C 11.664062 -9.453125 12.519531 -9.695312 13.09375 -10.1875 C 13.675781 -10.675781 13.96875 -11.378906 13.96875 -12.296875 C 13.96875 -13.203125 13.675781 -13.90625 13.09375 -14.40625 C 12.519531 -14.90625 11.664062 -15.15625 10.53125 -15.15625 L 7.46875 -15.15625 L 7.46875 -9.453125 Z M 10.53125 -9.453125 "/></g></g></g><g fill="#ef382d" fill-opacity="1"><g transform="translate(186.860255, 180.427684)"><g/></g></g><g fill="#ef382d" fill-opacity="1"><g transform="translate(194.970574, 180.427684)"><g><path d="M 8.8125 0.390625 C 7.226562 0.390625 5.691406 0.195312 4.203125 -0.1875 C 2.722656 -0.582031 1.515625 -1.101562 0.578125 -1.75 L 2.390625 -5.828125 C 3.265625 -5.253906 4.273438 -4.789062 5.421875 -4.4375 C 6.578125 -4.082031 7.71875 -3.90625 8.84375 -3.90625 C 10.957031 -3.90625 12.015625 -4.429688 12.015625 -5.484375 C 12.015625 -6.046875 11.710938 -6.460938 11.109375 -6.734375 C 10.503906 -7.003906 9.53125 -7.285156 8.1875 -7.578125 C 6.726562 -7.898438 5.503906 -8.238281 4.515625 -8.59375 C 3.523438 -8.957031 2.675781 -9.539062 1.96875 -10.34375 C 1.269531 -11.144531 0.921875 -12.222656 0.921875 -13.578125 C 0.921875 -14.765625 1.242188 -15.835938 1.890625 -16.796875 C 2.546875 -17.753906 3.519531 -18.507812 4.8125 -19.0625 C 6.101562 -19.625 7.6875 -19.90625 9.5625 -19.90625 C 10.84375 -19.90625 12.101562 -19.757812 13.34375 -19.46875 C 14.59375 -19.175781 15.691406 -18.753906 16.640625 -18.203125 L 14.9375 -14.109375 C 13.082031 -15.109375 11.28125 -15.609375 9.53125 -15.609375 C 8.4375 -15.609375 7.640625 -15.445312 7.140625 -15.125 C 6.640625 -14.800781 6.390625 -14.378906 6.390625 -13.859375 C 6.390625 -13.335938 6.6875 -12.945312 7.28125 -12.6875 C 7.875 -12.425781 8.828125 -12.15625 10.140625 -11.875 C 11.628906 -11.5625 12.859375 -11.222656 13.828125 -10.859375 C 14.804688 -10.492188 15.65625 -9.914062 16.375 -9.125 C 17.09375 -8.332031 17.453125 -7.257812 17.453125 -5.90625 C 17.453125 -4.738281 17.125 -3.679688 16.46875 -2.734375 C 15.820312 -1.785156 14.847656 -1.023438 13.546875 -0.453125 C 12.242188 0.109375 10.664062 0.390625 8.8125 0.390625 Z M 8.8125 0.390625 "/></g></g></g><g fill="#ef382d" fill-opacity="1"><g transform="translate(213.0028, 180.427684)"><g><path d="M 10.875 -19.515625 C 12.632812 -19.515625 14.164062 -19.21875 15.46875 -18.625 C 16.769531 -18.039062 17.773438 -17.207031 18.484375 -16.125 C 19.191406 -15.039062 19.546875 -13.765625 19.546875 -12.296875 C 19.546875 -10.828125 19.191406 -9.550781 18.484375 -8.46875 C 17.773438 -7.394531 16.769531 -6.5625 15.46875 -5.96875 C 14.164062 -5.382812 12.632812 -5.09375 10.875 -5.09375 L 7.46875 -5.09375 L 7.46875 0 L 1.953125 0 L 1.953125 -19.515625 Z M 10.53125 -9.453125 C 11.664062 -9.453125 12.519531 -9.695312 13.09375 -10.1875 C 13.675781 -10.675781 13.96875 -11.378906 13.96875 -12.296875 C 13.96875 -13.203125 13.675781 -13.90625 13.09375 -14.40625 C 12.519531 -14.90625 11.664062 -15.15625 10.53125 -15.15625 L 7.46875 -15.15625 L 7.46875 -9.453125 Z M 10.53125 -9.453125 "/></g></g></g><g fill="#ef382d" fill-opacity="1"><g transform="translate(233.543367, 180.427684)"><g><path d="M 11.796875 0.390625 C 9.734375 0.390625 7.878906 -0.046875 6.234375 -0.921875 C 4.585938 -1.796875 3.296875 -3.003906 2.359375 -4.546875 C 1.421875 -6.085938 0.953125 -7.820312 0.953125 -9.75 C 0.953125 -11.6875 1.421875 -13.425781 2.359375 -14.96875 C 3.296875 -16.507812 4.585938 -17.71875 6.234375 -18.59375 C 7.878906 -19.46875 9.734375 -19.90625 11.796875 -19.90625 C 13.859375 -19.90625 15.707031 -19.46875 17.34375 -18.59375 C 18.988281 -17.71875 20.28125 -16.507812 21.21875 -14.96875 C 22.164062 -13.425781 22.640625 -11.6875 22.640625 -9.75 C 22.640625 -7.820312 22.164062 -6.085938 21.21875 -4.546875 C 20.28125 -3.003906 18.988281 -1.796875 17.34375 -0.921875 C 15.707031 -0.046875 13.859375 0.390625 11.796875 0.390625 Z M 11.796875 -4.1875 C 12.773438 -4.1875 13.664062 -4.414062 14.46875 -4.875 C 15.269531 -5.34375 15.898438 -6 16.359375 -6.84375 C 16.828125 -7.6875 17.0625 -8.65625 17.0625 -9.75 C 17.0625 -10.851562 16.828125 -11.828125 16.359375 -12.671875 C 15.898438 -13.515625 15.269531 -14.164062 14.46875 -14.625 C 13.664062 -15.09375 12.773438 -15.328125 11.796875 -15.328125 C 10.804688 -15.328125 9.910156 -15.09375 9.109375 -14.625 C 8.316406 -14.164062 7.6875 -13.515625 7.21875 -12.671875 C 6.75 -11.828125 6.515625 -10.851562 6.515625 -9.75 C 6.515625 -8.65625 6.75 -7.6875 7.21875 -6.84375 C 7.6875 -6 8.316406 -5.34375 9.109375 -4.875 C 9.910156 -4.414062 10.804688 -4.1875 11.796875 -4.1875 Z M 11.796875 -4.1875 "/></g></g></g><g fill="#ef382d" fill-opacity="1"><g transform="translate(257.121818, 180.427684)"><g><path d="M 10.484375 -5.1875 L 7.46875 -5.1875 L 7.46875 0 L 1.953125 0 L 1.953125 -19.515625 L 10.875 -19.515625 C 12.632812 -19.515625 14.164062 -19.21875 15.46875 -18.625 C 16.769531 -18.039062 17.773438 -17.207031 18.484375 -16.125 C 19.191406 -15.039062 19.546875 -13.765625 19.546875 -12.296875 C 19.546875 -10.878906 19.210938 -9.644531 18.546875 -8.59375 C 17.890625 -7.550781 16.945312 -6.726562 15.71875 -6.125 L 19.9375 0 L 14.015625 0 Z M 13.96875 -12.296875 C 13.96875 -13.203125 13.675781 -13.90625 13.09375 -14.40625 C 12.519531 -14.90625 11.664062 -15.15625 10.53125 -15.15625 L 7.46875 -15.15625 L 7.46875 -9.453125 L 10.53125 -9.453125 C 11.664062 -9.453125 12.519531 -9.695312 13.09375 -10.1875 C 13.675781 -10.675781 13.96875 -11.378906 13.96875 -12.296875 Z M 13.96875 -12.296875 "/></g></g></g><g fill="#ef382d" fill-opacity="1"><g transform="translate(277.746002, 180.427684)"><g><path d="M 6.109375 -15.140625 L 0.109375 -15.140625 L 0.109375 -19.515625 L 17.59375 -19.515625 L 17.59375 -15.140625 L 11.625 -15.140625 L 11.625 0 L 6.109375 0 Z M 6.109375 -15.140625 "/></g></g></g><g fill="#ef382d" fill-opacity="1"><g transform="translate(295.443783, 180.427684)"><g><path d="M 8.8125 0.390625 C 7.226562 0.390625 5.691406 0.195312 4.203125 -0.1875 C 2.722656 -0.582031 1.515625 -1.101562 0.578125 -1.75 L 2.390625 -5.828125 C 3.265625 -5.253906 4.273438 -4.789062 5.421875 -4.4375 C 6.578125 -4.082031 7.71875 -3.90625 8.84375 -3.90625 C 10.957031 -3.90625 12.015625 -4.429688 12.015625 -5.484375 C 12.015625 -6.046875 11.710938 -6.460938 11.109375 -6.734375 C 10.503906 -7.003906 9.53125 -7.285156 8.1875 -7.578125 C 6.726562 -7.898438 5.503906 -8.238281 4.515625 -8.59375 C 3.523438 -8.957031 2.675781 -9.539062 1.96875 -10.34375 C 1.269531 -11.144531 0.921875 -12.222656 0.921875 -13.578125 C 0.921875 -14.765625 1.242188 -15.835938 1.890625 -16.796875 C 2.546875 -17.753906 3.519531 -18.507812 4.8125 -19.0625 C 6.101562 -19.625 7.6875 -19.90625 9.5625 -19.90625 C 10.84375 -19.90625 12.101562 -19.757812 13.34375 -19.46875 C 14.59375 -19.175781 15.691406 -18.753906 16.640625 -18.203125 L 14.9375 -14.109375 C 13.082031 -15.109375 11.28125 -15.609375 9.53125 -15.609375 C 8.4375 -15.609375 7.640625 -15.445312 7.140625 -15.125 C 6.640625 -14.800781 6.390625 -14.378906 6.390625 -13.859375 C 6.390625 -13.335938 6.6875 -12.945312 7.28125 -12.6875 C 7.875 -12.425781 8.828125 -12.15625 10.140625 -11.875 C 11.628906 -11.5625 12.859375 -11.222656 13.828125 -10.859375 C 14.804688 -10.492188 15.65625 -9.914062 16.375 -9.125 C 17.09375 -8.332031 17.453125 -7.257812 17.453125 -5.90625 C 17.453125 -4.738281 17.125 -3.679688 16.46875 -2.734375 C 15.820312 -1.785156 14.847656 -1.023438 13.546875 -0.453125 C 12.242188 0.109375 10.664062 0.390625 8.8125 0.390625 Z M 8.8125 0.390625 "/></g></g></g><g fill="#ffffff" fill-opacity="1"><g transform="translate(113.650463, 202.344772)"><g><path d="M 11.515625 -11.578125 L 6.390625 0 L 5.171875 0 L 0.046875 -11.578125 L 1.375 -11.578125 L 5.8125 -1.515625 L 10.28125 -11.578125 Z M 11.515625 -11.578125 "/></g></g></g><g fill="#ffffff" fill-opacity="1"><g transform="translate(125.191966, 202.344772)"><g><path d="M 1.890625 -11.578125 L 3.109375 -11.578125 L 3.109375 0 L 1.890625 0 Z M 1.890625 -11.578125 "/></g></g></g><g fill="#ffffff" fill-opacity="1"><g transform="translate(130.185572, 202.344772)"><g><path d="M 5.078125 0.09375 C 4.222656 0.09375 3.398438 -0.0390625 2.609375 -0.3125 C 1.816406 -0.59375 1.207031 -0.957031 0.78125 -1.40625 L 1.25 -2.34375 C 1.675781 -1.925781 2.234375 -1.585938 2.921875 -1.328125 C 3.617188 -1.066406 4.335938 -0.9375 5.078125 -0.9375 C 6.117188 -0.9375 6.894531 -1.125 7.40625 -1.5 C 7.925781 -1.882812 8.1875 -2.382812 8.1875 -3 C 8.1875 -3.457031 8.046875 -3.820312 7.765625 -4.09375 C 7.484375 -4.375 7.140625 -4.585938 6.734375 -4.734375 C 6.328125 -4.890625 5.757812 -5.054688 5.03125 -5.234375 C 4.15625 -5.453125 3.457031 -5.660156 2.9375 -5.859375 C 2.425781 -6.066406 1.984375 -6.378906 1.609375 -6.796875 C 1.242188 -7.210938 1.0625 -7.78125 1.0625 -8.5 C 1.0625 -9.082031 1.210938 -9.613281 1.515625 -10.09375 C 1.828125 -10.582031 2.300781 -10.96875 2.9375 -11.25 C 3.582031 -11.539062 4.378906 -11.6875 5.328125 -11.6875 C 5.992188 -11.6875 6.640625 -11.59375 7.265625 -11.40625 C 7.898438 -11.226562 8.453125 -10.976562 8.921875 -10.65625 L 8.5 -9.6875 C 8.019531 -10 7.503906 -10.234375 6.953125 -10.390625 C 6.398438 -10.554688 5.859375 -10.640625 5.328125 -10.640625 C 4.316406 -10.640625 3.550781 -10.441406 3.03125 -10.046875 C 2.519531 -9.660156 2.265625 -9.15625 2.265625 -8.53125 C 2.265625 -8.070312 2.40625 -7.703125 2.6875 -7.421875 C 2.96875 -7.140625 3.320312 -6.921875 3.75 -6.765625 C 4.175781 -6.617188 4.742188 -6.457031 5.453125 -6.28125 C 6.304688 -6.070312 6.992188 -5.863281 7.515625 -5.65625 C 8.046875 -5.457031 8.492188 -5.148438 8.859375 -4.734375 C 9.222656 -4.328125 9.40625 -3.769531 9.40625 -3.0625 C 9.40625 -2.476562 9.242188 -1.945312 8.921875 -1.46875 C 8.609375 -0.988281 8.125 -0.609375 7.46875 -0.328125 C 6.820312 -0.046875 6.023438 0.09375 5.078125 0.09375 Z M 5.078125 0.09375 "/></g></g></g><g fill="#ffffff" fill-opacity="1"><g transform="translate(140.354666, 202.344772)"><g><path d="M 4.140625 -10.53125 L 0.0625 -10.53125 L 0.0625 -11.578125 L 9.4375 -11.578125 L 9.4375 -10.53125 L 5.359375 -10.53125 L 5.359375 0 L 4.140625 0 Z M 4.140625 -10.53125 "/></g></g></g><g fill="#ffffff" fill-opacity="1"><g transform="translate(149.845811, 202.344772)"><g><path d="M 9.15625 -3.09375 L 2.703125 -3.09375 L 1.3125 0 L 0.03125 0 L 5.328125 -11.578125 L 6.53125 -11.578125 L 11.828125 0 L 10.546875 0 Z M 8.703125 -4.09375 L 5.921875 -10.3125 L 3.140625 -4.09375 Z M 8.703125 -4.09375 "/></g></g></g><g fill="#ffffff" fill-opacity="1"><g transform="translate(161.701477, 202.344772)"><g/></g></g><g fill="#ffffff" fill-opacity="1"><g transform="translate(166.033672, 202.344772)"><g><path d="M 5.078125 0.09375 C 4.222656 0.09375 3.398438 -0.0390625 2.609375 -0.3125 C 1.816406 -0.59375 1.207031 -0.957031 0.78125 -1.40625 L 1.25 -2.34375 C 1.675781 -1.925781 2.234375 -1.585938 2.921875 -1.328125 C 3.617188 -1.066406 4.335938 -0.9375 5.078125 -0.9375 C 6.117188 -0.9375 6.894531 -1.125 7.40625 -1.5 C 7.925781 -1.882812 8.1875 -2.382812 8.1875 -3 C 8.1875 -3.457031 8.046875 -3.820312 7.765625 -4.09375 C 7.484375 -4.375 7.140625 -4.585938 6.734375 -4.734375 C 6.328125 -4.890625 5.757812 -5.054688 5.03125 -5.234375 C 4.15625 -5.453125 3.457031 -5.660156 2.9375 -5.859375 C 2.425781 -6.066406 1.984375 -6.378906 1.609375 -6.796875 C 1.242188 -7.210938 1.0625 -7.78125 1.0625 -8.5 C 1.0625 -9.082031 1.210938 -9.613281 1.515625 -10.09375 C 1.828125 -10.582031 2.300781 -10.96875 2.9375 -11.25 C 3.582031 -11.539062 4.378906 -11.6875 5.328125 -11.6875 C 5.992188 -11.6875 6.640625 -11.59375 7.265625 -11.40625 C 7.898438 -11.226562 8.453125 -10.976562 8.921875 -10.65625 L 8.5 -9.6875 C 8.019531 -10 7.503906 -10.234375 6.953125 -10.390625 C 6.398438 -10.554688 5.859375 -10.640625 5.328125 -10.640625 C 4.316406 -10.640625 3.550781 -10.441406 3.03125 -10.046875 C 2.519531 -9.660156 2.265625 -9.15625 2.265625 -8.53125 C 2.265625 -8.070312 2.40625 -7.703125 2.6875 -7.421875 C 2.96875 -7.140625 3.320312 -6.921875 3.75 -6.765625 C 4.175781 -6.617188 4.742188 -6.457031 5.453125 -6.28125 C 6.304688 -6.070312 6.992188 -5.863281 7.515625 -5.65625 C 8.046875 -5.457031 8.492188 -5.148438 8.859375 -4.734375 C 9.222656 -4.328125 9.40625 -3.769531 9.40625 -3.0625 C 9.40625 -2.476562 9.242188 -1.945312 8.921875 -1.46875 C 8.609375 -0.988281 8.125 -0.609375 7.46875 -0.328125 C 6.820312 -0.046875 6.023438 0.09375 5.078125 0.09375 Z M 5.078125 0.09375 "/></g></g></g><g fill="#ffffff" fill-opacity="1"><g transform="translate(176.202766, 202.344772)"><g><path d="M 6.546875 0.09375 C 5.046875 0.09375 3.875 -0.332031 3.03125 -1.1875 C 2.195312 -2.050781 1.78125 -3.304688 1.78125 -4.953125 L 1.78125 -11.578125 L 3.015625 -11.578125 L 3.015625 -5 C 3.015625 -3.65625 3.316406 -2.648438 3.921875 -1.984375 C 4.523438 -1.328125 5.398438 -1 6.546875 -1 C 7.710938 -1 8.597656 -1.328125 9.203125 -1.984375 C 9.804688 -2.648438 10.109375 -3.65625 10.109375 -5 L 10.109375 -11.578125 L 11.296875 -11.578125 L 11.296875 -4.953125 C 11.296875 -3.304688 10.878906 -2.050781 10.046875 -1.1875 C 9.210938 -0.332031 8.046875 0.09375 6.546875 0.09375 Z M 6.546875 0.09375 "/></g></g></g><g fill="#ffffff" fill-opacity="1"><g transform="translate(189.298571, 202.344772)"><g><path d="M 9.15625 -3.09375 L 2.703125 -3.09375 L 1.3125 0 L 0.03125 0 L 5.328125 -11.578125 L 6.53125 -11.578125 L 11.828125 0 L 10.546875 0 Z M 8.703125 -4.09375 L 5.921875 -10.3125 L 3.140625 -4.09375 Z M 8.703125 -4.09375 "/></g></g></g><g fill="#ffffff" fill-opacity="1"><g transform="translate(201.154238, 202.344772)"><g/></g></g><g fill="#ffffff" fill-opacity="1"><g transform="translate(205.486433, 202.344772)"><g><path d="M 6.21875 -11.578125 C 7.695312 -11.578125 8.851562 -11.222656 9.6875 -10.515625 C 10.53125 -9.816406 10.953125 -8.847656 10.953125 -7.609375 C 10.953125 -6.378906 10.53125 -5.410156 9.6875 -4.703125 C 8.851562 -4.003906 7.695312 -3.65625 6.21875 -3.65625 L 3.109375 -3.65625 L 3.109375 0 L 1.890625 0 L 1.890625 -11.578125 Z M 6.1875 -4.734375 C 7.332031 -4.734375 8.207031 -4.984375 8.8125 -5.484375 C 9.425781 -5.984375 9.734375 -6.691406 9.734375 -7.609375 C 9.734375 -8.546875 9.425781 -9.265625 8.8125 -9.765625 C 8.207031 -10.273438 7.332031 -10.53125 6.1875 -10.53125 L 3.109375 -10.53125 L 3.109375 -4.734375 Z M 6.1875 -4.734375 "/></g></g></g><g fill="#ffffff" fill-opacity="1"><g transform="translate(217.358636, 202.344772)"><g><path d="M 9.15625 -3.09375 L 2.703125 -3.09375 L 1.3125 0 L 0.03125 0 L 5.328125 -11.578125 L 6.53125 -11.578125 L 11.828125 0 L 10.546875 0 Z M 8.703125 -4.09375 L 5.921875 -10.3125 L 3.140625 -4.09375 Z M 8.703125 -4.09375 "/></g></g></g><g fill="#ffffff" fill-opacity="1"><g transform="translate(229.214302, 202.344772)"><g><path d="M 1.890625 -11.578125 L 3.109375 -11.578125 L 3.109375 0 L 1.890625 0 Z M 1.890625 -11.578125 "/></g></g></g><g fill="#ffffff" fill-opacity="1"><g transform="translate(234.207908, 202.344772)"><g><path d="M 9.15625 0 L 5.40625 -5.09375 L 1.6875 0 L 0.28125 0 L 4.6875 -5.953125 L 0.5625 -11.578125 L 1.96875 -11.578125 L 5.453125 -6.84375 L 8.9375 -11.578125 L 10.265625 -11.578125 L 6.15625 -5.984375 L 10.578125 0 Z M 9.15625 0 "/></g></g></g><g fill="#ffffff" fill-opacity="1"><g transform="translate(245.054938, 202.344772)"><g><path d="M 9.15625 -3.09375 L 2.703125 -3.09375 L 1.3125 0 L 0.03125 0 L 5.328125 -11.578125 L 6.53125 -11.578125 L 11.828125 0 L 10.546875 0 Z M 8.703125 -4.09375 L 5.921875 -10.3125 L 3.140625 -4.09375 Z M 7.0625 -12.625 C 6.8125 -12.625 6.585938 -12.679688 6.390625 -12.796875 C 6.191406 -12.910156 5.976562 -13.070312 5.75 -13.28125 C 5.550781 -13.445312 5.390625 -13.566406 5.265625 -13.640625 C 5.148438 -13.710938 5.03125 -13.75 4.90625 -13.75 C 4.644531 -13.75 4.4375 -13.65625 4.28125 -13.46875 C 4.132812 -13.28125 4.054688 -13.019531 4.046875 -12.6875 L 3.328125 -12.6875 C 3.347656 -13.238281 3.488281 -13.679688 3.75 -14.015625 C 4.019531 -14.347656 4.375 -14.515625 4.8125 -14.515625 C 5.070312 -14.515625 5.296875 -14.457031 5.484375 -14.34375 C 5.679688 -14.238281 5.90625 -14.070312 6.15625 -13.84375 C 6.332031 -13.695312 6.476562 -13.582031 6.59375 -13.5 C 6.71875 -13.425781 6.847656 -13.390625 6.984375 -13.390625 C 7.222656 -13.390625 7.421875 -13.476562 7.578125 -13.65625 C 7.734375 -13.84375 7.820312 -14.09375 7.84375 -14.40625 L 8.5625 -14.40625 C 8.539062 -13.875 8.394531 -13.441406 8.125 -13.109375 C 7.863281 -12.785156 7.507812 -12.625 7.0625 -12.625 Z M 7.0625 -12.625 "/></g></g></g><g fill="#ffffff" fill-opacity="1"><g transform="translate(256.910605, 202.344772)"><g><path d="M 6.953125 0.09375 C 5.804688 0.09375 4.765625 -0.160156 3.828125 -0.671875 C 2.898438 -1.179688 2.171875 -1.882812 1.640625 -2.78125 C 1.117188 -3.675781 0.859375 -4.679688 0.859375 -5.796875 C 0.859375 -6.910156 1.117188 -7.910156 1.640625 -8.796875 C 2.171875 -9.691406 2.898438 -10.394531 3.828125 -10.90625 C 4.765625 -11.425781 5.804688 -11.6875 6.953125 -11.6875 C 8.097656 -11.6875 9.128906 -11.429688 10.046875 -10.921875 C 10.972656 -10.410156 11.695312 -9.707031 12.21875 -8.8125 C 12.75 -7.914062 13.015625 -6.910156 13.015625 -5.796875 C 13.015625 -4.679688 12.75 -3.671875 12.21875 -2.765625 C 11.695312 -1.867188 10.972656 -1.164062 10.046875 -0.65625 C 9.128906 -0.15625 8.097656 0.09375 6.953125 0.09375 Z M 6.953125 -1 C 7.867188 -1 8.695312 -1.203125 9.4375 -1.609375 C 10.175781 -2.023438 10.753906 -2.597656 11.171875 -3.328125 C 11.585938 -4.066406 11.796875 -4.890625 11.796875 -5.796875 C 11.796875 -6.691406 11.585938 -7.503906 11.171875 -8.234375 C 10.753906 -8.972656 10.175781 -9.550781 9.4375 -9.96875 C 8.695312 -10.382812 7.867188 -10.59375 6.953125 -10.59375 C 6.035156 -10.59375 5.203125 -10.382812 4.453125 -9.96875 C 3.710938 -9.550781 3.128906 -8.972656 2.703125 -8.234375 C 2.273438 -7.503906 2.0625 -6.691406 2.0625 -5.796875 C 2.0625 -4.890625 2.273438 -4.066406 2.703125 -3.328125 C 3.128906 -2.597656 3.710938 -2.023438 4.453125 -1.609375 C 5.203125 -1.203125 6.035156 -1 6.953125 -1 Z M 6.953125 -1 "/></g></g></g><g fill="#ffffff" fill-opacity="1"><g transform="translate(270.783555, 202.344772)"><g/></g></g><g fill="#ffffff" fill-opacity="1"><g transform="translate(275.11575, 202.344772)"><g><path d="M 6.21875 -11.578125 C 7.695312 -11.578125 8.851562 -11.222656 9.6875 -10.515625 C 10.53125 -9.816406 10.953125 -8.847656 10.953125 -7.609375 C 10.953125 -6.378906 10.53125 -5.410156 9.6875 -4.703125 C 8.851562 -4.003906 7.695312 -3.65625 6.21875 -3.65625 L 3.109375 -3.65625 L 3.109375 0 L 1.890625 0 L 1.890625 -11.578125 Z M 6.1875 -4.734375 C 7.332031 -4.734375 8.207031 -4.984375 8.8125 -5.484375 C 9.425781 -5.984375 9.734375 -6.691406 9.734375 -7.609375 C 9.734375 -8.546875 9.425781 -9.265625 8.8125 -9.765625 C 8.207031 -10.273438 7.332031 -10.53125 6.1875 -10.53125 L 3.109375 -10.53125 L 3.109375 -4.734375 Z M 6.1875 -4.734375 "/></g></g></g><g fill="#ffffff" fill-opacity="1"><g transform="translate(286.987953, 202.344772)"><g><path d="M 10.078125 -1.0625 L 10.078125 0 L 1.890625 0 L 1.890625 -11.578125 L 9.828125 -11.578125 L 9.828125 -10.53125 L 3.109375 -10.53125 L 3.109375 -6.40625 L 9.09375 -6.40625 L 9.09375 -5.359375 L 3.109375 -5.359375 L 3.109375 -1.0625 Z M 10.078125 -1.0625 "/></g></g></g><g fill="#ffffff" fill-opacity="1"><g transform="translate(298.049938, 202.344772)"><g><path d="M 1.890625 -11.578125 L 3.109375 -11.578125 L 3.109375 -1.0625 L 9.59375 -1.0625 L 9.59375 0 L 1.890625 0 Z M 1.890625 -11.578125 "/></g></g></g><g fill="#ffffff" fill-opacity="1"><g transform="translate(307.789122, 202.344772)"><g><path d="M 6.953125 0.09375 C 5.804688 0.09375 4.765625 -0.160156 3.828125 -0.671875 C 2.898438 -1.179688 2.171875 -1.882812 1.640625 -2.78125 C 1.117188 -3.675781 0.859375 -4.679688 0.859375 -5.796875 C 0.859375 -6.910156 1.117188 -7.910156 1.640625 -8.796875 C 2.171875 -9.691406 2.898438 -10.394531 3.828125 -10.90625 C 4.765625 -11.425781 5.804688 -11.6875 6.953125 -11.6875 C 8.097656 -11.6875 9.128906 -11.429688 10.046875 -10.921875 C 10.972656 -10.410156 11.695312 -9.707031 12.21875 -8.8125 C 12.75 -7.914062 13.015625 -6.910156 13.015625 -5.796875 C 13.015625 -4.679688 12.75 -3.671875 12.21875 -2.765625 C 11.695312 -1.867188 10.972656 -1.164062 10.046875 -0.65625 C 9.128906 -0.15625 8.097656 0.09375 6.953125 0.09375 Z M 6.953125 -1 C 7.867188 -1 8.695312 -1.203125 9.4375 -1.609375 C 10.175781 -2.023438 10.753906 -2.597656 11.171875 -3.328125 C 11.585938 -4.066406 11.796875 -4.890625 11.796875 -5.796875 C 11.796875 -6.691406 11.585938 -7.503906 11.171875 -8.234375 C 10.753906 -8.972656 10.175781 -9.550781 9.4375 -9.96875 C 8.695312 -10.382812 7.867188 -10.59375 6.953125 -10.59375 C 6.035156 -10.59375 5.203125 -10.382812 4.453125 -9.96875 C 3.710938 -9.550781 3.128906 -8.972656 2.703125 -8.234375 C 2.273438 -7.503906 2.0625 -6.691406 2.0625 -5.796875 C 2.0625 -4.890625 2.273438 -4.066406 2.703125 -3.328125 C 3.128906 -2.597656 3.710938 -2.023438 4.453125 -1.609375 C 5.203125 -1.203125 6.035156 -1 6.953125 -1 Z M 6.953125 -1 "/></g></g></g><g fill="#ffffff" fill-opacity="1"><g transform="translate(177.916083, 224.84477)"><g><path d="M 10.078125 -1.0625 L 10.078125 0 L 1.890625 0 L 1.890625 -11.578125 L 9.828125 -11.578125 L 9.828125 -10.53125 L 3.109375 -10.53125 L 3.109375 -6.40625 L 9.09375 -6.40625 L 9.09375 -5.359375 L 3.109375 -5.359375 L 3.109375 -1.0625 Z M 10.078125 -1.0625 "/></g></g></g><g fill="#ffffff" fill-opacity="1"><g transform="translate(188.978068, 224.84477)"><g><path d="M 5.078125 0.09375 C 4.222656 0.09375 3.398438 -0.0390625 2.609375 -0.3125 C 1.816406 -0.59375 1.207031 -0.957031 0.78125 -1.40625 L 1.25 -2.34375 C 1.675781 -1.925781 2.234375 -1.585938 2.921875 -1.328125 C 3.617188 -1.066406 4.335938 -0.9375 5.078125 -0.9375 C 6.117188 -0.9375 6.894531 -1.125 7.40625 -1.5 C 7.925781 -1.882812 8.1875 -2.382812 8.1875 -3 C 8.1875 -3.457031 8.046875 -3.820312 7.765625 -4.09375 C 7.484375 -4.375 7.140625 -4.585938 6.734375 -4.734375 C 6.328125 -4.890625 5.757812 -5.054688 5.03125 -5.234375 C 4.15625 -5.453125 3.457031 -5.660156 2.9375 -5.859375 C 2.425781 -6.066406 1.984375 -6.378906 1.609375 -6.796875 C 1.242188 -7.210938 1.0625 -7.78125 1.0625 -8.5 C 1.0625 -9.082031 1.210938 -9.613281 1.515625 -10.09375 C 1.828125 -10.582031 2.300781 -10.96875 2.9375 -11.25 C 3.582031 -11.539062 4.378906 -11.6875 5.328125 -11.6875 C 5.992188 -11.6875 6.640625 -11.59375 7.265625 -11.40625 C 7.898438 -11.226562 8.453125 -10.976562 8.921875 -10.65625 L 8.5 -9.6875 C 8.019531 -10 7.503906 -10.234375 6.953125 -10.390625 C 6.398438 -10.554688 5.859375 -10.640625 5.328125 -10.640625 C 4.316406 -10.640625 3.550781 -10.441406 3.03125 -10.046875 C 2.519531 -9.660156 2.265625 -9.15625 2.265625 -8.53125 C 2.265625 -8.070312 2.40625 -7.703125 2.6875 -7.421875 C 2.96875 -7.140625 3.320312 -6.921875 3.75 -6.765625 C 4.175781 -6.617188 4.742188 -6.457031 5.453125 -6.28125 C 6.304688 -6.070312 6.992188 -5.863281 7.515625 -5.65625 C 8.046875 -5.457031 8.492188 -5.148438 8.859375 -4.734375 C 9.222656 -4.328125 9.40625 -3.769531 9.40625 -3.0625 C 9.40625 -2.476562 9.242188 -1.945312 8.921875 -1.46875 C 8.609375 -0.988281 8.125 -0.609375 7.46875 -0.328125 C 6.820312 -0.046875 6.023438 0.09375 5.078125 0.09375 Z M 5.078125 0.09375 "/></g></g></g><g fill="#ffffff" fill-opacity="1"><g transform="translate(199.147161, 224.84477)"><g><path d="M 6.21875 -11.578125 C 7.695312 -11.578125 8.851562 -11.222656 9.6875 -10.515625 C 10.53125 -9.816406 10.953125 -8.847656 10.953125 -7.609375 C 10.953125 -6.378906 10.53125 -5.410156 9.6875 -4.703125 C 8.851562 -4.003906 7.695312 -3.65625 6.21875 -3.65625 L 3.109375 -3.65625 L 3.109375 0 L 1.890625 0 L 1.890625 -11.578125 Z M 6.1875 -4.734375 C 7.332031 -4.734375 8.207031 -4.984375 8.8125 -5.484375 C 9.425781 -5.984375 9.734375 -6.691406 9.734375 -7.609375 C 9.734375 -8.546875 9.425781 -9.265625 8.8125 -9.765625 C 8.207031 -10.273438 7.332031 -10.53125 6.1875 -10.53125 L 3.109375 -10.53125 L 3.109375 -4.734375 Z M 6.1875 -4.734375 "/></g></g></g><g fill="#ffffff" fill-opacity="1"><g transform="translate(211.019364, 224.84477)"><g><path d="M 6.953125 0.09375 C 5.804688 0.09375 4.765625 -0.160156 3.828125 -0.671875 C 2.898438 -1.179688 2.171875 -1.882812 1.640625 -2.78125 C 1.117188 -3.675781 0.859375 -4.679688 0.859375 -5.796875 C 0.859375 -6.910156 1.117188 -7.910156 1.640625 -8.796875 C 2.171875 -9.691406 2.898438 -10.394531 3.828125 -10.90625 C 4.765625 -11.425781 5.804688 -11.6875 6.953125 -11.6875 C 8.097656 -11.6875 9.128906 -11.429688 10.046875 -10.921875 C 10.972656 -10.410156 11.695312 -9.707031 12.21875 -8.8125 C 12.75 -7.914062 13.015625 -6.910156 13.015625 -5.796875 C 13.015625 -4.679688 12.75 -3.671875 12.21875 -2.765625 C 11.695312 -1.867188 10.972656 -1.164062 10.046875 -0.65625 C 9.128906 -0.15625 8.097656 0.09375 6.953125 0.09375 Z M 6.953125 -1 C 7.867188 -1 8.695312 -1.203125 9.4375 -1.609375 C 10.175781 -2.023438 10.753906 -2.597656 11.171875 -3.328125 C 11.585938 -4.066406 11.796875 -4.890625 11.796875 -5.796875 C 11.796875 -6.691406 11.585938 -7.503906 11.171875 -8.234375 C 10.753906 -8.972656 10.175781 -9.550781 9.4375 -9.96875 C 8.695312 -10.382812 7.867188 -10.59375 6.953125 -10.59375 C 6.035156 -10.59375 5.203125 -10.382812 4.453125 -9.96875 C 3.710938 -9.550781 3.128906 -8.972656 2.703125 -8.234375 C 2.273438 -7.503906 2.0625 -6.691406 2.0625 -5.796875 C 2.0625 -4.890625 2.273438 -4.066406 2.703125 -3.328125 C 3.128906 -2.597656 3.710938 -2.023438 4.453125 -1.609375 C 5.203125 -1.203125 6.035156 -1 6.953125 -1 Z M 6.953125 -1 "/></g></g></g><g fill="#ffffff" fill-opacity="1"><g transform="translate(224.892315, 224.84477)"><g><path d="M 9.796875 0 L 7.140625 -3.71875 C 6.847656 -3.6875 6.539062 -3.671875 6.21875 -3.671875 L 3.109375 -3.671875 L 3.109375 0 L 1.890625 0 L 1.890625 -11.578125 L 6.21875 -11.578125 C 7.695312 -11.578125 8.851562 -11.222656 9.6875 -10.515625 C 10.53125 -9.816406 10.953125 -8.847656 10.953125 -7.609375 C 10.953125 -6.703125 10.722656 -5.9375 10.265625 -5.3125 C 9.804688 -4.695312 9.15625 -4.25 8.3125 -3.96875 L 11.140625 0 Z M 6.1875 -4.71875 C 7.332031 -4.71875 8.207031 -4.96875 8.8125 -5.46875 C 9.425781 -5.976562 9.734375 -6.691406 9.734375 -7.609375 C 9.734375 -8.546875 9.425781 -9.265625 8.8125 -9.765625 C 8.207031 -10.273438 7.332031 -10.53125 6.1875 -10.53125 L 3.109375 -10.53125 L 3.109375 -4.71875 Z M 6.1875 -4.71875 "/></g></g></g><g fill="#ffffff" fill-opacity="1"><g transform="translate(236.84719, 224.84477)"><g><path d="M 4.140625 -10.53125 L 0.0625 -10.53125 L 0.0625 -11.578125 L 9.4375 -11.578125 L 9.4375 -10.53125 L 5.359375 -10.53125 L 5.359375 0 L 4.140625 0 Z M 4.140625 -10.53125 "/></g></g></g><g fill="#ffffff" fill-opacity="1"><g transform="translate(246.338336, 224.84477)"><g><path d="M 10.078125 -1.0625 L 10.078125 0 L 1.890625 0 L 1.890625 -11.578125 L 9.828125 -11.578125 L 9.828125 -10.53125 L 3.109375 -10.53125 L 3.109375 -6.40625 L 9.09375 -6.40625 L 9.09375 -5.359375 L 3.109375 -5.359375 L 3.109375 -1.0625 Z M 10.078125 -1.0625 "/></g></g></g></svg>